<svg width="600" height="180" viewBox="0 0 600 180" fill="none" xmlns="http://www.w3.org/2000/svg"> 
<path d="M-3.08811e-06 27.6619C-1.72904e-06 19.889 8.47971 15.0878 15.145 19.087L40.2899 34.174C46.314 37.7884 50 44.2986 50 51.3238L50 68.6762C50 75.7015 46.314 82.2116 40.2899 85.8261L15.1449 100.913C8.47968 104.912 -1.57555e-05 100.111 -1.43965e-05 92.3381L-3.08811e-06 27.6619Z" fill="#FA776C"/>
<path d="M103.855 -3.00576e-06C109.151 -1.88027e-06 111.85 6.36198 108.169 10.1701L94.8962 23.9004C91.1279 27.7987 85.9383 30 80.5165 30L55.5397 30C51.9148 30 48.3581 29.0148 45.2498 27.1498L18.5749 11.1449C13.3568 8.01404 15.5766 -2.17645e-05 21.6619 -2.04714e-05L103.855 -3.00576e-06Z" fill="#624CF5"/>
<path d="M103.855 150C109.151 150 111.85 143.638 108.169 139.83L94.8962 126.099C91.1279 122.201 85.9384 120 80.5165 120L55.5397 120C51.9148 120 48.3581 120.985 45.2498 122.85L18.5749 138.855C13.3568 141.986 15.5766 150 21.6619 150L103.855 150Z" fill="#624CF5"/>
<rect x="56" y="60" width="35" height="35" rx="17.5" fill="#FA776C"/>
<text x="115" y="122" font-family="Montserrat, sans-serif" font-size="100" font-weight="bold" fill="black">EVENTIFY</text>
</svg>
